<svg width="444" height="410" viewBox="0 0 444 410" fill="none" xmlns="http://www.w3.org/2000/svg">
<path d="M222 410C344.607 410 444 318.218 444 205C444 91.7816 344.607 0 222 0C99.3928 0 0 91.7816 0 205C0 318.218 99.3928 410 222 410Z" fill="#FBFADA"/>
<mask id="mask0_511_411" style="mask-type:luminance" maskUnits="userSpaceOnUse" x="67" y="50" width="310" height="310">
<path d="M222 359.961C307.513 359.961 376.836 290.583 376.836 205C376.836 119.417 307.513 50.0386 222 50.0386C136.486 50.0386 67.164 119.417 67.164 205C67.164 290.583 136.486 359.961 222 359.961Z" fill="white"/>
</mask>
<g mask="url(#mask0_511_411)">
<path d="M376.836 85.7525L67.164 88.3955V50.0386H376.836V85.7525Z" fill="#FED777"/>
<path d="M376.836 88.7544L67.164 91.4138V88.3955L376.836 85.7524V88.7544Z" fill="#FED777"/>
<path d="M376.836 91.7727L67.164 94.4158V91.4138L376.836 88.7544V91.7727Z" fill="#FED676"/>
<path d="M376.836 94.7749L67.164 97.4343V94.416L376.836 91.7729V94.7749Z" fill="#FDD575"/>
<path d="M376.836 97.7932L67.164 100.436V97.4343L376.836 94.7749V97.7932Z" fill="#FDD474"/>
<path d="M376.836 100.795L67.164 103.454V100.436L376.836 97.793V100.795Z" fill="#FDD373"/>
<path d="M376.836 103.813L67.164 106.456V103.454L376.836 100.795V103.813Z" fill="#FDD372"/>
<path d="M376.836 106.815L67.164 109.475V106.457L376.836 103.813V106.815Z" fill="#FCD271"/>
<path d="M376.836 109.834L67.164 112.477V109.475L376.836 106.815V109.834Z" fill="#FCD170"/>
<path d="M376.836 112.835L67.164 115.495V112.477L376.836 109.833V112.835Z" fill="#FCD06F"/>
<path d="M376.836 115.854L67.164 118.497V115.495L376.836 112.835V115.854Z" fill="#FBCF6E"/>
<path d="M376.836 118.856L67.164 121.515V118.497L376.836 115.854V118.856Z" fill="#FBCE6D"/>
<path d="M376.836 121.874L67.164 124.517V121.515L376.836 118.856V121.874Z" fill="#FBCD6C"/>
<path d="M376.836 124.876L67.164 127.535V124.517L376.836 121.874V124.876Z" fill="#FACC6B"/>
<path d="M376.836 127.894L67.164 130.554V127.535L376.836 124.876V127.894Z" fill="#FACC6A"/>
<path d="M376.836 130.897L67.164 133.556V130.554L376.836 127.895V130.897Z" fill="#FACB69"/>
<path d="M376.836 133.915L67.164 136.574V133.556L376.836 130.896V133.915Z" fill="#FACA68"/>
<path d="M376.836 136.917L67.164 139.576V136.574L376.836 133.915V136.917Z" fill="#F9C967"/>
<path d="M376.836 139.935L67.164 142.595V139.576L376.836 136.917V139.935Z" fill="#F9C866"/>
<path d="M376.836 142.937L67.164 145.596V142.594L376.836 139.935V142.937Z" fill="#F9C765"/>
<path d="M376.836 145.955L67.164 148.615V145.596L376.836 142.937V145.955Z" fill="#F8C664"/>
<path d="M376.836 148.958L67.164 151.617V148.615L376.836 145.956V148.958Z" fill="#F8C563"/>
<path d="M376.836 151.976L67.164 154.635V151.617L376.836 148.958V151.976Z" fill="#F8C562"/>
<path d="M376.836 154.978L67.164 157.637V154.635L376.836 151.976V154.978Z" fill="#F8C461"/>
<path d="M376.836 157.996L67.164 160.655V157.637L376.836 154.978V157.996Z" fill="#F7C360"/>
<path d="M376.836 160.998L67.164 163.657V160.655L376.836 157.996V160.998Z" fill="#F7C25F"/>
<path d="M376.836 164.016L67.164 166.676V163.657L376.836 160.998V164.016Z" fill="#F7C15E"/>
<path d="M376.836 167.018L67.164 169.677V166.675L376.836 164.016V167.018Z" fill="#F6C05D"/>
<path d="M376.836 170.036L67.164 172.696V169.677L376.836 167.018V170.036Z" fill="#F6BF5C"/>
<path d="M376.836 173.039L67.164 175.698V172.696L376.836 170.037V173.039Z" fill="#F6BE5B"/>
<path d="M376.836 176.057L67.164 178.716V175.698L376.836 173.039V176.057Z" fill="#F5BD5A"/>
<path d="M376.836 179.075L67.164 181.718V178.716L376.836 176.057V179.075Z" fill="#F5BD59"/>
<path d="M376.836 182.077L67.164 184.737V181.718L376.836 179.075V182.077Z" fill="#F5BC58"/>
<path d="M376.836 185.095L67.164 187.739V184.737L376.836 182.077V185.095Z" fill="#F5BB57"/>
<path d="M376.836 188.098L67.164 190.757V187.739L376.836 185.096V188.098Z" fill="#F4BA56"/>
<path d="M376.836 191.116L67.164 193.759V190.757L376.836 188.098V191.116Z" fill="#F4B955"/>
<path d="M376.836 194.118L67.164 196.777V193.759L376.836 191.116V194.118Z" fill="#F4B854"/>
<path d="M376.836 197.136L67.164 199.779V196.777L376.836 194.118V197.136Z" fill="#F3B753"/>
<path d="M376.836 200.138L67.164 202.798V199.779L376.836 197.136V200.138Z" fill="#F3B652"/>
<path d="M376.836 203.156L67.164 205.8V202.798L376.836 200.138V203.156Z" fill="#F3B650"/>
<path d="M376.836 206.158L67.164 208.818V205.799L376.836 203.156V206.158Z" fill="#F3B54F"/>
<path d="M376.836 209.177L67.164 211.82V208.818L376.836 206.158V209.177Z" fill="#F2B44E"/>
<path d="M376.836 212.179L67.164 214.838V211.82L376.836 209.177V212.179Z" fill="#F2B34D"/>
<path d="M376.836 215.197L67.164 217.84V214.838L376.836 212.179V215.197Z" fill="#F2B24C"/>
<path d="M376.836 218.199L67.164 220.858V217.84L376.836 215.197V218.199Z" fill="#F1B14B"/>
<path d="M376.836 221.217L67.164 223.86V220.858L376.836 218.199V221.217Z" fill="#F1B04A"/>
<path d="M376.836 224.219L67.164 226.879V223.86L376.836 221.217V224.219Z" fill="#F1AF49"/>
<path d="M376.836 227.238L67.164 229.881V226.879L376.836 224.219V227.238Z" fill="#F1AF48"/>
<path d="M376.836 230.239L67.164 232.899V229.88L376.836 227.237V230.239Z" fill="#F0AE47"/>
<path d="M376.836 233.258L67.164 235.917V232.899L376.836 230.24V233.258Z" fill="#F0AD46"/>
<path d="M376.836 236.26L67.164 238.919V235.917L376.836 233.258V236.26Z" fill="#F0AC45"/>
<path d="M376.836 239.278L67.164 241.937V238.919L376.836 236.26V239.278Z" fill="#EFAB44"/>
<path d="M376.836 242.28L67.164 244.94V241.938L376.836 239.278V242.28Z" fill="#EFAA43"/>
<path d="M376.836 245.299L67.164 247.958V244.94L376.836 242.28V245.299Z" fill="#EFA942"/>
<path d="M376.836 248.3L67.164 250.96V247.958L376.836 245.298V248.3Z" fill="#EEA841"/>
<path d="M376.836 251.319L67.164 253.978V250.96L376.836 248.3V251.319Z" fill="#EEA740"/>
<path d="M376.836 254.321L67.164 256.98V253.978L376.836 251.319V254.321Z" fill="#EEA73F"/>
<path d="M376.836 257.339L67.164 259.998V256.98L376.836 254.321V257.339Z" fill="#EEA63E"/>
<path d="M376.836 260.341L67.164 263V259.998L376.836 257.339V260.341Z" fill="#EDA53D"/>
<path d="M376.836 263.359L67.164 266.018V263L376.836 260.341V263.359Z" fill="#EDA43C"/>
<path d="M376.836 266.361L67.164 269.021V266.019L376.836 263.359V266.361Z" fill="#EDA33B"/>
<path d="M376.836 269.38L67.164 272.039V269.021L376.836 266.361V269.38Z" fill="#ECA23A"/>
<path d="M376.836 272.381L67.164 275.041V272.039L376.836 269.379V272.381Z" fill="#ECA139"/>
<path d="M376.836 275.4L67.164 278.06V275.041L376.836 272.382V275.4Z" fill="#ECA038"/>
<path d="M376.836 278.402L67.164 281.061V278.059L376.836 275.4V278.402Z" fill="#ECA037"/>
<path d="M376.836 281.42L67.164 284.08V281.061L376.836 278.402V281.42Z" fill="#EB9F36"/>
<path d="M376.836 284.439L67.164 287.082V284.08L376.836 281.42V284.439Z" fill="#EB9E35"/>
<path d="M376.836 287.44L67.164 290.1V287.082L376.836 284.438V287.44Z" fill="#EB9D34"/>
<path d="M376.836 290.459L67.164 293.102V290.1L376.836 287.44V290.459Z" fill="#EA9C33"/>
<path d="M376.836 293.461L67.164 296.12V293.102L376.836 290.459V293.461Z" fill="#EA9B32"/>
<path d="M376.836 296.479L67.164 299.122V296.12L376.836 293.461V296.479Z" fill="#EA9A31"/>
<path d="M376.836 299.481L67.164 302.14V299.122L376.836 296.479V299.481Z" fill="#E99930"/>
<path d="M376.836 302.499L67.164 305.142V302.14L376.836 299.481V302.499Z" fill="#E9992F"/>
<path d="M376.836 305.501L67.164 308.161V305.143L376.836 302.5V305.501Z" fill="#E9982E"/>
<path d="M376.836 308.52L67.164 311.163V308.161L376.836 305.501V308.52Z" fill="#E9972D"/>
<path d="M376.836 311.522L67.164 314.181V311.163L376.836 308.52V311.522Z" fill="#E8962C"/>
<path d="M376.836 314.54L67.164 317.183V314.181L376.836 311.521V314.54Z" fill="#E8952B"/>
<path d="M67.164 317.183L376.836 314.54V359.961H67.164V317.183Z" fill="#E8952B"/>
</g>
<path d="M222 366.488C133.024 366.488 60.6432 294.048 60.6432 205C60.6432 115.952 133.024 43.5127 222 43.5127C310.976 43.5127 383.357 115.952 383.357 205C383.357 294.048 310.976 366.488 222 366.488ZM222 56.5648C140.213 56.5648 73.6848 123.147 73.6848 205C73.6848 286.853 140.213 353.436 222 353.436C303.787 353.436 370.315 286.853 370.315 205C370.315 123.147 303.787 56.5648 222 56.5648Z" fill="#DF8C26"/>
<g opacity="0.6">
<path d="M180.593 140.147C190.439 156.054 206.024 179.434 219.864 192.551C219.033 174.752 223.076 147.195 229.14 131.598C237.829 109.279 253.952 87.6612 276.285 72.1618C277.524 71.2971 277.948 69.9919 278.975 69.4046C262.999 62.5196 245.524 58.3429 227.086 57.4945C204.899 56.4667 183.641 60.3497 164.389 68.1646C165.122 69.3067 165.53 70.6935 165.465 72.3576C164.503 96.0636 167.714 119.28 180.609 140.131L180.593 140.147Z" fill="#FFD04E"/>
<path d="M259.886 139.641C249.713 155.858 235.302 180.657 229.515 199.126C245.507 190.071 272.715 180.788 289.832 178.912C314.318 176.236 341.558 180.494 365.979 193.171C367.332 193.873 368.734 193.644 369.728 194.281C368.799 176.84 364.691 159.301 357.078 142.464C347.933 122.2 334.679 105.069 318.719 91.5767C318.002 92.7514 316.91 93.7792 315.345 94.4971C293.093 104.71 273.172 118.431 259.853 139.657H259.886V139.641Z" fill="#F8B019"/>
<path d="M295.962 207.708C277.068 206.452 248.67 205.538 229.792 209.193C245.084 218.933 265.705 238.397 275.193 252.51C288.789 272.708 297.527 298.584 297.608 325.96C297.608 327.478 298.456 328.587 298.358 329.778C313.242 320.723 326.773 308.829 338.054 294.227C351.649 276.64 360.615 256.947 365.147 236.586C363.778 236.521 362.376 236.048 361.039 235.02C341.852 220.336 320.692 209.372 295.929 207.724H295.962V207.708Z" fill="#F0A020"/>
<path d="M260.114 272.251C250.969 256.034 236.444 232.181 223.206 218.542C223.255 236.211 218.006 263.327 211.241 278.5C201.574 300.215 184.522 320.903 161.52 335.244C160.248 336.043 159.759 337.316 158.716 337.854C174.366 345.392 191.646 350.335 210.034 352.016C232.156 354.039 253.561 351.167 273.139 344.299C272.455 343.14 272.112 341.737 272.243 340.089C274.248 316.645 272.08 293.493 260.114 272.251Z" fill="#F0A020"/>
<path d="M192.282 274.845C200.123 257.535 210.996 231.186 214.24 212.195C199.715 223.159 174.186 235.721 157.607 239.718C133.872 245.429 106.517 244.613 80.8087 235.134C79.3742 234.612 78.0374 235.02 76.9615 234.514C80.2056 251.661 86.5796 268.498 96.2956 284.21C107.984 303.103 123.308 318.407 140.8 329.762C141.338 328.506 142.283 327.364 143.718 326.45C164.242 313.561 182.011 297.507 192.282 274.829V274.845Z" fill="#F0A020"/>
<path d="M146.864 210.253C165.726 208.72 193.928 205.473 212.039 199.11C195.509 191.719 172.312 175.486 160.884 162.923C144.533 144.944 132.127 120.634 128.084 93.5511C127.856 92.0501 126.862 91.0712 126.78 89.8965C113.38 101.04 101.74 114.761 92.6929 130.864C81.8032 150.246 75.8041 171.032 74.2554 191.834C75.6084 191.703 77.0593 191.964 78.5428 192.796C99.6212 204.494 122.151 212.26 146.848 210.253H146.864Z" fill="#F8B019"/>
</g>
<g opacity="0.95" style="mix-blend-mode:luminosity">
<path d="M264.238 104.858C270.71 108.121 275.438 105.364 284.143 110.177C293.892 115.561 303.754 124.077 308.694 135.416C310.552 139.674 311.661 143.672 312.019 147.375C312.411 151.454 323.366 143.606 325.958 136.754C328.957 128.841 324.572 120.863 321.98 116.164C312.525 98.968 294.625 93.4861 290.126 92.2462C281.192 89.8152 264.874 87.7921 261.581 94.2366C259.951 97.4181 260.962 103.21 264.238 104.858Z" fill="#F8FBF4"/>
</g>
<path d="M208.017 299.197C203.632 299.197 199.214 298.495 194.911 296.946C177.272 290.583 171.159 273.256 170.115 269.846L177.908 267.464C178.755 270.221 183.679 284.236 197.666 289.294C212.517 294.661 229.944 286.944 237.573 276.715C241.828 271.021 241.697 266.436 241.518 260.09C241.339 253.596 241.127 245.52 246.506 235.323C255.032 219.171 255.261 218.861 270.079 202.024C271.66 200.229 280.952 181.809 271.709 162.949C263.428 146.047 260.216 144.48 246.686 137.922L244.224 136.731C233.726 131.591 206.681 130.482 190.852 139.439C167.572 152.622 168.762 184.306 168.779 184.632L160.644 185.007C160.579 183.506 159.242 147.972 186.841 132.342C205.768 121.623 235.584 123.434 247.794 129.405L250.24 130.596C264.259 137.4 269.508 139.945 279.029 159.376C289.755 181.287 279.925 203.182 276.192 207.424C266.656 218.274 259.157 228.846 253.712 239.141C249.327 247.445 249.49 253.776 249.653 259.877C249.832 266.648 250.028 273.647 244.094 281.609C236.742 291.48 222.608 299.23 208.001 299.23V299.197H208.017Z" fill="white"/>
<path d="M208.001 299.833H207.007V299.784C202.752 299.686 198.611 298.919 194.699 297.5C176.767 291.039 170.588 273.468 169.529 270.009L169.349 269.422L178.315 266.681L178.495 267.268C179.326 269.976 184.168 283.746 197.878 288.706C212.468 293.976 229.585 286.389 237.084 276.339C241.208 270.825 241.078 266.322 240.915 260.106C240.736 253.547 240.507 245.389 245.968 235.029C254.511 218.845 254.739 218.535 269.623 201.616C271.171 199.854 280.268 181.793 271.155 163.21C262.955 146.487 259.776 144.937 246.409 138.46L243.947 137.269C233.579 132.195 206.827 131.085 191.145 139.961C179.31 146.666 174.028 158.348 171.68 166.962C169.072 176.539 169.382 184.501 169.382 184.583L169.414 185.203L160.057 185.643L160.025 185.023C159.959 183.506 158.72 147.547 186.532 131.803C205.637 120.97 235.731 122.83 248.055 128.85L250.5 130.041C264.667 136.91 269.965 139.488 279.567 159.099C290.424 181.287 280.431 203.508 276.632 207.816C267.161 218.567 259.63 229.205 254.234 239.418C249.914 247.592 250.093 253.824 250.24 259.845C250.419 266.746 250.615 273.843 244.566 281.952C236.611 292.638 221.907 299.817 207.985 299.817L208.001 299.833ZM170.882 270.254C172.333 274.659 178.576 290.403 195.106 296.374C199.198 297.843 203.534 298.593 208.001 298.593H208.996C222.249 298.283 236.057 291.382 243.605 281.25C249.408 273.468 249.229 266.583 249.05 259.926C248.887 253.71 248.707 247.315 253.174 238.847C258.619 228.552 266.199 217.849 275.736 207.016C279.404 202.839 289.071 181.271 278.475 159.637C269.052 140.401 263.852 137.873 249.979 131.134L247.533 129.943C235.454 124.037 205.915 122.226 187.151 132.864C161.606 147.335 161.149 179.362 161.247 184.354L168.176 184.028C168.159 179.492 168.925 151.137 190.574 138.884C206.583 129.829 233.905 130.971 244.518 136.159L246.979 137.35C260.657 143.974 263.901 145.557 272.28 162.655C281.67 181.809 272.182 200.572 270.552 202.399C255.766 219.204 255.538 219.514 247.061 235.584C241.746 245.65 241.958 253.645 242.137 260.04C242.317 266.518 242.447 271.184 238.078 277.057C230.319 287.466 212.582 295.314 197.47 289.848C184.021 284.986 178.788 272.016 177.517 268.198L170.898 270.221L170.882 270.254Z" fill="#C06228"/>
<path d="M194.454 247.918C194.096 243.937 194.422 237.852 197.943 231.521C198.024 231.391 198.106 231.211 198.204 230.999C199.377 228.65 202.491 222.434 209.843 219.823C210.887 219.448 211.865 219.106 212.745 218.861L212.973 218.763V218.796C213.087 218.763 213.185 218.747 213.283 218.714V218.649C213.462 218.584 214.375 218.241 217.554 217.083C226.211 213.917 230.465 211.176 231.052 210.671C235.568 206.135 235.747 200.245 235.552 199.038C235.552 199.022 234.378 194.404 229.471 190.244C229.471 190.244 221.189 184.387 212.191 184.876C204.839 185.284 201.432 191.174 198.823 196.64C197.698 198.989 196.541 201.355 193.558 201.387C191.813 201.355 190.314 200.311 189.564 198.597C186.662 191.973 187.607 178.024 194.21 166.163C197.014 161.122 200.502 154.856 208.181 151.724C217.88 147.759 227.417 151.61 232.552 153.682L232.894 153.812C247.093 159.523 251.87 167.794 254.739 172.738C255.081 173.342 255.407 173.896 255.733 174.402L248.838 178.742C248.479 178.171 248.104 177.518 247.696 176.833C245.072 172.281 241.453 166.065 229.862 161.399L229.52 161.252C225.183 159.506 217.929 156.57 211.278 159.278C206.616 161.187 204.317 164.809 201.35 170.127C198.53 175.201 197.079 180.373 196.508 184.746C199.736 180.781 204.545 177.127 211.751 176.719C222.918 176.083 233.22 182.69 234.769 184.012C241.045 189.347 243.279 195.693 243.621 197.7C244.306 201.812 243.05 210.214 236.774 216.511C235.095 218.208 229.243 221.504 220.374 224.751L216.739 226.072C216.413 226.186 216.103 226.284 215.81 226.35C215.582 226.447 214.799 226.708 212.566 227.508C208.311 229.025 206.469 232.68 205.491 234.654C205.328 234.997 205.181 235.274 205.067 235.486C202.556 240.005 202.328 244.345 202.573 247.2L194.454 247.918Z" fill="white"/>
<path d="M193.9 248.587L193.851 247.984C193.476 243.921 193.802 237.721 197.405 231.228C197.486 231.097 197.552 230.967 197.617 230.804C198.84 228.34 202.035 221.961 209.631 219.253C210.61 218.91 211.637 218.535 212.566 218.274L213.576 217.833V217.882C214.147 217.67 215.256 217.262 217.342 216.512C225.95 213.363 230.172 210.622 230.645 210.214C234.948 205.89 235.128 200.294 234.948 199.136C234.948 199.136 233.824 194.731 229.08 190.717C229.047 190.701 220.88 185.007 212.223 185.496C205.214 185.888 201.904 191.598 199.377 196.917C198.236 199.283 196.948 201.975 193.558 202.007C191.553 201.975 189.841 200.784 188.993 198.859C186.026 192.104 186.972 177.91 193.672 165.886C196.525 160.763 200.062 154.4 207.952 151.186C217.88 147.123 227.58 151.039 232.78 153.143L233.123 153.274C247.501 159.05 252.359 167.436 255.261 172.428C255.619 173.064 255.945 173.603 256.255 174.108L256.597 174.631L248.658 179.623L248.332 179.101C248.071 178.693 247.811 178.253 247.55 177.779L247.191 177.176C244.615 172.705 241.094 166.603 229.65 162.003L229.292 161.856C225.02 160.143 217.913 157.288 211.522 159.882C207.039 161.725 204.806 165.266 201.904 170.47C199.345 175.071 198.09 179.46 197.47 182.804C201.399 178.693 206.192 176.458 211.751 176.148C223.162 175.512 233.612 182.233 235.193 183.588C241.583 189.021 243.898 195.579 244.257 197.635C244.958 201.877 243.686 210.524 237.247 216.985C235.535 218.714 229.601 222.075 220.619 225.371L216.984 226.692C216.625 226.823 216.299 226.921 215.973 226.986C215.957 227.002 215.663 227.116 215.044 227.329L212.794 228.128C208.735 229.58 206.99 233.088 206.061 234.964C205.898 235.307 205.752 235.6 205.621 235.812C203.192 240.185 202.964 244.41 203.192 247.184L203.241 247.788L193.916 248.603L193.9 248.587ZM213.006 219.416H212.99C212.011 219.693 211.017 220.052 210.055 220.395C202.915 222.923 199.899 228.993 198.758 231.277C198.644 231.522 198.562 231.717 198.465 231.848C195.204 237.721 194.748 243.366 195.025 247.249L201.937 246.646C201.774 243.709 202.149 239.516 204.545 235.192C204.659 234.997 204.79 234.719 204.953 234.393C205.898 232.484 207.855 228.552 212.37 226.937L214.62 226.138C215.174 225.942 215.451 225.844 215.565 225.795C215.94 225.697 216.234 225.599 216.543 225.501L220.179 224.18C228.966 220.966 234.72 217.719 236.35 216.087C242.464 209.953 243.686 201.795 243.034 197.814C242.708 195.873 240.507 189.689 234.394 184.485C232.862 183.18 222.803 176.703 211.8 177.339C205.915 177.665 200.942 180.292 196.997 185.138L195.644 186.802L195.921 184.664C196.394 181.091 197.617 175.609 200.828 169.834C203.861 164.401 206.208 160.697 211.066 158.723C217.929 155.933 225.314 158.903 229.732 160.681L230.123 160.844C241.942 165.608 245.594 171.922 248.251 176.539L248.609 177.143C248.756 177.404 248.919 177.665 249.066 177.91L254.918 174.223C254.69 173.847 254.462 173.472 254.234 173.048C251.397 168.153 246.669 160.012 232.699 154.383L232.373 154.253C227.319 152.214 217.913 148.412 208.458 152.295C200.975 155.346 197.535 161.513 194.797 166.473C188.276 178.171 187.33 191.876 190.183 198.369C190.835 199.854 192.123 200.767 193.623 200.8C196.231 200.767 197.242 198.646 198.334 196.395C201.024 190.766 204.529 184.713 212.223 184.289C221.32 183.8 229.536 189.526 229.895 189.771C234.785 193.915 236.236 198.679 236.236 199.071C236.432 200.245 236.253 206.412 231.558 211.128C230.922 211.682 226.585 214.488 217.831 217.686C215.598 218.502 214.489 218.91 213.968 219.106L213.544 219.334C213.479 219.35 213.397 219.383 213.332 219.399L213.087 219.465L213.006 219.416Z" fill="#C06228"/>
</svg>
