<svg width="444" height="410" viewBox="0 0 444 410" fill="none" xmlns="http://www.w3.org/2000/svg">
<path d="M222 410C344.607 410 444 318.218 444 205C444 91.7816 344.607 0 222 0C99.3928 0 0 91.7816 0 205C0 318.218 99.3928 410 222 410Z" fill="#FBFADA"/>
<mask id="mask0_310_559" style="mask-type:luminance" maskUnits="userSpaceOnUse" x="67" y="50" width="310" height="310">
<path d="M222 359.961C307.514 359.961 376.836 290.583 376.836 205C376.836 119.417 307.514 50.0386 222 50.0386C136.486 50.0386 67.1641 119.417 67.1641 205C67.1641 290.583 136.486 359.961 222 359.961Z" fill="white"/>
</mask>
<g mask="url(#mask0_310_559)">
<path d="M376.836 85.7525L67.1641 88.3955V50.0386H376.836V85.7525Z" fill="#FED777"/>
<path d="M376.836 88.7544L67.1641 91.4138V88.3955L376.836 85.7524V88.7544Z" fill="#FED777"/>
<path d="M376.836 91.7727L67.1641 94.4158V91.4138L376.836 88.7544V91.7727Z" fill="#FED676"/>
<path d="M376.836 94.7749L67.1641 97.4343V94.416L376.836 91.7729V94.7749Z" fill="#FDD575"/>
<path d="M376.836 97.7932L67.1641 100.436V97.4343L376.836 94.7749V97.7932Z" fill="#FDD474"/>
<path d="M376.836 100.795L67.1641 103.454V100.436L376.836 97.793V100.795Z" fill="#FDD373"/>
<path d="M376.836 103.813L67.1641 106.456V103.454L376.836 100.795V103.813Z" fill="#FDD372"/>
<path d="M376.836 106.815L67.1641 109.475V106.457L376.836 103.813V106.815Z" fill="#FCD271"/>
<path d="M376.836 109.834L67.1641 112.477V109.475L376.836 106.815V109.834Z" fill="#FCD170"/>
<path d="M376.836 112.835L67.1641 115.495V112.477L376.836 109.833V112.835Z" fill="#FCD06F"/>
<path d="M376.836 115.854L67.1641 118.497V115.495L376.836 112.835V115.854Z" fill="#FBCF6E"/>
<path d="M376.836 118.856L67.1641 121.515V118.497L376.836 115.854V118.856Z" fill="#FBCE6D"/>
<path d="M376.836 121.874L67.1641 124.517V121.515L376.836 118.856V121.874Z" fill="#FBCD6C"/>
<path d="M376.836 124.876L67.1641 127.535V124.517L376.836 121.874V124.876Z" fill="#FACC6B"/>
<path d="M376.836 127.894L67.1641 130.554V127.535L376.836 124.876V127.894Z" fill="#FACC6A"/>
<path d="M376.836 130.897L67.1641 133.556V130.554L376.836 127.895V130.897Z" fill="#FACB69"/>
<path d="M376.836 133.915L67.1641 136.574V133.556L376.836 130.896V133.915Z" fill="#FACA68"/>
<path d="M376.836 136.917L67.1641 139.576V136.574L376.836 133.915V136.917Z" fill="#F9C967"/>
<path d="M376.836 139.935L67.1641 142.595V139.576L376.836 136.917V139.935Z" fill="#F9C866"/>
<path d="M376.836 142.937L67.1641 145.596V142.594L376.836 139.935V142.937Z" fill="#F9C765"/>
<path d="M376.836 145.955L67.1641 148.615V145.596L376.836 142.937V145.955Z" fill="#F8C664"/>
<path d="M376.836 148.958L67.1641 151.617V148.615L376.836 145.956V148.958Z" fill="#F8C563"/>
<path d="M376.836 151.976L67.1641 154.635V151.617L376.836 148.958V151.976Z" fill="#F8C562"/>
<path d="M376.836 154.978L67.1641 157.637V154.635L376.836 151.976V154.978Z" fill="#F8C461"/>
<path d="M376.836 157.996L67.1641 160.655V157.637L376.836 154.978V157.996Z" fill="#F7C360"/>
<path d="M376.836 160.998L67.1641 163.657V160.655L376.836 157.996V160.998Z" fill="#F7C25F"/>
<path d="M376.836 164.016L67.1641 166.676V163.657L376.836 160.998V164.016Z" fill="#F7C15E"/>
<path d="M376.836 167.018L67.1641 169.677V166.675L376.836 164.016V167.018Z" fill="#F6C05D"/>
<path d="M376.836 170.036L67.1641 172.696V169.677L376.836 167.018V170.036Z" fill="#F6BF5C"/>
<path d="M376.836 173.039L67.1641 175.698V172.696L376.836 170.037V173.039Z" fill="#F6BE5B"/>
<path d="M376.836 176.057L67.1641 178.716V175.698L376.836 173.039V176.057Z" fill="#F5BD5A"/>
<path d="M376.836 179.075L67.1641 181.718V178.716L376.836 176.057V179.075Z" fill="#F5BD59"/>
<path d="M376.836 182.077L67.1641 184.737V181.718L376.836 179.075V182.077Z" fill="#F5BC58"/>
<path d="M376.836 185.095L67.1641 187.739V184.737L376.836 182.077V185.095Z" fill="#F5BB57"/>
<path d="M376.836 188.098L67.1641 190.757V187.739L376.836 185.096V188.098Z" fill="#F4BA56"/>
<path d="M376.836 191.116L67.1641 193.759V190.757L376.836 188.098V191.116Z" fill="#F4B955"/>
<path d="M376.836 194.118L67.1641 196.777V193.759L376.836 191.116V194.118Z" fill="#F4B854"/>
<path d="M376.836 197.136L67.1641 199.779V196.777L376.836 194.118V197.136Z" fill="#F3B753"/>
<path d="M376.836 200.138L67.1641 202.798V199.779L376.836 197.136V200.138Z" fill="#F3B652"/>
<path d="M376.836 203.156L67.1641 205.8V202.798L376.836 200.138V203.156Z" fill="#F3B650"/>
<path d="M376.836 206.158L67.1641 208.818V205.799L376.836 203.156V206.158Z" fill="#F3B54F"/>
<path d="M376.836 209.177L67.1641 211.82V208.818L376.836 206.158V209.177Z" fill="#F2B44E"/>
<path d="M376.836 212.179L67.1641 214.838V211.82L376.836 209.177V212.179Z" fill="#F2B34D"/>
<path d="M376.836 215.197L67.1641 217.84V214.838L376.836 212.179V215.197Z" fill="#F2B24C"/>
<path d="M376.836 218.199L67.1641 220.858V217.84L376.836 215.197V218.199Z" fill="#F1B14B"/>
<path d="M376.836 221.217L67.1641 223.86V220.858L376.836 218.199V221.217Z" fill="#F1B04A"/>
<path d="M376.836 224.219L67.1641 226.879V223.86L376.836 221.217V224.219Z" fill="#F1AF49"/>
<path d="M376.836 227.238L67.1641 229.881V226.879L376.836 224.219V227.238Z" fill="#F1AF48"/>
<path d="M376.836 230.239L67.1641 232.899V229.88L376.836 227.237V230.239Z" fill="#F0AE47"/>
<path d="M376.836 233.258L67.1641 235.917V232.899L376.836 230.24V233.258Z" fill="#F0AD46"/>
<path d="M376.836 236.26L67.1641 238.919V235.917L376.836 233.258V236.26Z" fill="#F0AC45"/>
<path d="M376.836 239.278L67.1641 241.937V238.919L376.836 236.26V239.278Z" fill="#EFAB44"/>
<path d="M376.836 242.28L67.1641 244.94V241.938L376.836 239.278V242.28Z" fill="#EFAA43"/>
<path d="M376.836 245.299L67.1641 247.958V244.94L376.836 242.28V245.299Z" fill="#EFA942"/>
<path d="M376.836 248.3L67.1641 250.96V247.958L376.836 245.298V248.3Z" fill="#EEA841"/>
<path d="M376.836 251.319L67.1641 253.978V250.96L376.836 248.3V251.319Z" fill="#EEA740"/>
<path d="M376.836 254.321L67.1641 256.98V253.978L376.836 251.319V254.321Z" fill="#EEA73F"/>
<path d="M376.836 257.339L67.1641 259.998V256.98L376.836 254.321V257.339Z" fill="#EEA63E"/>
<path d="M376.836 260.341L67.1641 263V259.998L376.836 257.339V260.341Z" fill="#EDA53D"/>
<path d="M376.836 263.359L67.1641 266.018V263L376.836 260.341V263.359Z" fill="#EDA43C"/>
<path d="M376.836 266.361L67.1641 269.021V266.019L376.836 263.359V266.361Z" fill="#EDA33B"/>
<path d="M376.836 269.38L67.1641 272.039V269.021L376.836 266.361V269.38Z" fill="#ECA23A"/>
<path d="M376.836 272.381L67.1641 275.041V272.039L376.836 269.379V272.381Z" fill="#ECA139"/>
<path d="M376.836 275.4L67.1641 278.06V275.041L376.836 272.382V275.4Z" fill="#ECA038"/>
<path d="M376.836 278.402L67.1641 281.061V278.059L376.836 275.4V278.402Z" fill="#ECA037"/>
<path d="M376.836 281.42L67.1641 284.08V281.061L376.836 278.402V281.42Z" fill="#EB9F36"/>
<path d="M376.836 284.439L67.1641 287.082V284.08L376.836 281.42V284.439Z" fill="#EB9E35"/>
<path d="M376.836 287.44L67.1641 290.1V287.082L376.836 284.438V287.44Z" fill="#EB9D34"/>
<path d="M376.836 290.459L67.1641 293.102V290.1L376.836 287.44V290.459Z" fill="#EA9C33"/>
<path d="M376.836 293.461L67.1641 296.12V293.102L376.836 290.459V293.461Z" fill="#EA9B32"/>
<path d="M376.836 296.479L67.1641 299.122V296.12L376.836 293.461V296.479Z" fill="#EA9A31"/>
<path d="M376.836 299.481L67.1641 302.14V299.122L376.836 296.479V299.481Z" fill="#E99930"/>
<path d="M376.836 302.499L67.1641 305.142V302.14L376.836 299.481V302.499Z" fill="#E9992F"/>
<path d="M376.836 305.501L67.1641 308.161V305.143L376.836 302.5V305.501Z" fill="#E9982E"/>
<path d="M376.836 308.52L67.1641 311.163V308.161L376.836 305.501V308.52Z" fill="#E9972D"/>
<path d="M376.836 311.522L67.1641 314.181V311.163L376.836 308.52V311.522Z" fill="#E8962C"/>
<path d="M376.836 314.54L67.1641 317.183V314.181L376.836 311.521V314.54Z" fill="#E8952B"/>
<path d="M67.1641 317.183L376.836 314.54V359.961H67.1641V317.183Z" fill="#E8952B"/>
</g>
<path d="M222 366.488C133.024 366.488 60.6433 294.048 60.6433 205C60.6433 115.952 133.024 43.5127 222 43.5127C310.976 43.5127 383.357 115.952 383.357 205C383.357 294.048 310.976 366.488 222 366.488ZM222 56.5648C140.213 56.5648 73.6848 123.147 73.6848 205C73.6848 286.853 140.213 353.436 222 353.436C303.787 353.436 370.315 286.853 370.315 205C370.315 123.147 303.787 56.5648 222 56.5648Z" fill="#DF8C26"/>
<g opacity="0.6">
<path d="M180.593 140.147C190.439 156.054 206.024 179.434 219.864 192.551C219.033 174.752 223.076 147.195 229.14 131.598C237.829 109.279 253.952 87.6612 276.286 72.1618C277.524 71.2971 277.948 69.9919 278.975 69.4046C262.999 62.5196 245.524 58.3429 227.086 57.4945C204.899 56.4667 183.642 60.3497 164.389 68.1646C165.122 69.3067 165.53 70.6935 165.465 72.3576C164.503 96.0636 167.715 119.28 180.609 140.131L180.593 140.147Z" fill="#FFD04E"/>
<path d="M259.886 139.641C249.713 155.858 235.302 180.657 229.515 199.126C245.507 190.071 272.715 180.788 289.832 178.912C314.318 176.236 341.559 180.494 365.979 193.171C367.332 193.873 368.734 193.644 369.728 194.281C368.799 176.84 364.691 159.301 357.078 142.464C347.933 122.2 334.679 105.069 318.719 91.5767C318.002 92.7514 316.91 93.7792 315.345 94.4971C293.093 104.71 273.172 118.431 259.853 139.657H259.886V139.641Z" fill="#F8B019"/>
<path d="M295.962 207.708C277.068 206.452 248.67 205.538 229.792 209.193C245.084 218.933 265.706 238.397 275.193 252.51C288.789 272.708 297.527 298.584 297.608 325.96C297.608 327.478 298.456 328.587 298.358 329.778C313.242 320.723 326.773 308.829 338.054 294.227C351.649 276.64 360.616 256.947 365.147 236.586C363.778 236.521 362.376 236.048 361.039 235.02C341.852 220.336 320.692 209.372 295.929 207.724H295.962V207.708Z" fill="#F0A020"/>
<path d="M260.114 272.251C250.969 256.034 236.444 232.181 223.206 218.542C223.255 236.211 218.006 263.327 211.241 278.5C201.574 300.215 184.522 320.903 161.52 335.244C160.248 336.043 159.759 337.316 158.716 337.854C174.366 345.392 191.646 350.335 210.034 352.016C232.156 354.039 253.561 351.167 273.139 344.299C272.455 343.14 272.112 341.737 272.243 340.089C274.248 316.645 272.08 293.493 260.114 272.251Z" fill="#F0A020"/>
<path d="M192.282 274.845C200.123 257.535 210.996 231.186 214.24 212.195C199.715 223.159 174.186 235.721 157.607 239.718C133.872 245.429 106.517 244.613 80.8088 235.134C79.3742 234.612 78.0375 235.02 76.9615 234.514C80.2056 251.661 86.5797 268.498 96.2956 284.21C107.984 303.103 123.308 318.407 140.8 329.762C141.338 328.506 142.283 327.364 143.718 326.45C164.242 313.561 182.011 297.507 192.282 274.829V274.845Z" fill="#F0A020"/>
<path d="M146.864 210.253C165.726 208.72 193.928 205.473 212.04 199.11C195.509 191.719 172.312 175.486 160.884 162.923C144.533 144.944 132.127 120.634 128.084 93.5511C127.856 92.0501 126.862 91.0712 126.78 89.8965C113.38 101.04 101.74 114.761 92.6929 130.864C81.8032 150.246 75.8041 171.032 74.2554 191.834C75.6085 191.703 77.0593 191.964 78.5428 192.796C99.6212 204.494 122.151 212.26 146.848 210.253H146.864Z" fill="#F8B019"/>
</g>
<g opacity="0.95" style="mix-blend-mode:luminosity">
<path d="M264.238 104.858C270.71 108.121 275.438 105.364 284.143 110.177C293.892 115.561 303.754 124.077 308.694 135.416C310.552 139.674 311.661 143.672 312.019 147.375C312.411 151.454 323.366 143.606 325.958 136.754C328.957 128.841 324.572 120.863 321.98 116.164C312.525 98.968 294.625 93.4861 290.126 92.2462C281.192 89.8152 264.874 87.7921 261.581 94.2366C259.951 97.4181 260.962 103.21 264.238 104.858Z" fill="#F8FBF4"/>
</g>
<path d="M183.348 299.514C178.963 299.514 174.545 298.812 170.241 297.262C152.603 290.899 146.489 273.573 145.446 270.163L153.238 267.781C154.086 270.538 159.009 284.553 172.996 289.611C187.847 294.978 205.274 287.261 212.904 277.032C217.158 271.338 217.028 266.753 216.849 260.406C216.669 253.913 216.457 245.837 221.837 235.64C230.363 219.488 230.591 219.178 245.41 202.341C246.991 200.546 256.283 182.126 247.04 163.266C238.758 146.363 235.547 144.797 222.016 138.239L219.555 137.048C209.056 131.908 182.011 130.799 166.182 139.756C142.903 152.938 144.093 184.623 144.109 184.949L135.975 185.324C135.909 183.823 134.573 148.289 162.172 132.659C181.098 121.94 210.915 123.751 223.125 129.722L225.57 130.913C239.59 137.716 244.839 140.262 254.359 159.693C265.086 181.604 255.256 203.499 251.523 207.741C241.986 218.591 234.487 229.163 229.042 239.458C224.657 247.762 224.82 254.092 224.983 260.194C225.163 266.965 225.358 273.964 219.424 281.926C212.072 291.797 197.938 299.547 183.332 299.547V299.514H183.348Z" fill="white"/>
<path d="M183.332 300.15H182.337V300.101C178.083 300.003 173.942 299.236 170.029 297.817C152.097 291.356 145.919 273.785 144.859 270.326L144.68 269.739L153.646 266.998L153.825 267.585C154.657 270.293 159.498 284.063 173.208 289.023C187.799 294.293 204.916 286.706 212.414 276.656C216.539 271.142 216.408 266.639 216.245 260.423C216.066 253.864 215.838 245.706 221.299 235.346C229.841 219.162 230.069 218.852 244.953 201.933C246.502 200.171 255.598 182.11 246.486 163.527C238.286 146.804 235.107 145.254 221.739 138.777L219.278 137.586C208.91 132.512 182.158 131.402 166.476 140.278C154.64 146.983 149.359 158.665 147.011 167.279C144.403 176.856 144.712 184.818 144.712 184.9L144.745 185.52L135.388 185.96L135.355 185.34C135.29 183.823 134.051 147.864 161.862 132.12C180.968 121.287 211.061 123.147 223.386 129.167L225.831 130.358C239.997 137.227 245.295 139.805 254.897 159.415C265.754 181.604 255.761 203.825 251.963 208.133C242.492 218.884 234.96 229.522 229.564 239.735C225.244 247.909 225.423 254.141 225.57 260.162C225.749 267.063 225.945 274.16 219.897 282.269C211.942 292.955 197.237 300.134 183.315 300.134L183.332 300.15ZM146.212 270.571C147.663 274.976 153.907 290.72 170.437 296.691C174.529 298.16 178.865 298.91 183.332 298.91H184.326C197.58 298.6 211.387 291.699 218.935 281.567C224.739 273.785 224.559 266.9 224.38 260.243C224.217 254.027 224.038 247.632 228.504 239.164C233.949 228.869 241.53 218.166 251.066 207.333C254.734 203.156 264.401 181.588 253.805 159.954C244.383 140.718 239.182 138.189 225.309 131.451L222.864 130.26C210.784 124.354 181.245 122.543 162.482 133.181C136.936 147.652 136.48 179.679 136.578 184.671L143.506 184.345C143.49 179.809 144.256 151.454 165.905 139.201C181.913 130.146 209.236 131.288 219.848 136.476L222.31 137.667C235.987 144.291 239.231 145.874 247.61 162.972C257 182.126 247.513 200.889 245.882 202.716C231.096 219.52 230.868 219.83 222.391 235.901C217.077 245.967 217.289 253.962 217.468 260.357C217.647 266.834 217.778 271.501 213.409 277.374C205.649 287.783 187.913 295.631 172.801 290.165C159.352 285.303 154.119 272.333 152.847 268.515L146.229 270.538L146.212 270.571Z" fill="#C06228"/>
<path d="M169.785 248.235C169.426 244.254 169.752 238.169 173.273 231.838C173.355 231.708 173.436 231.528 173.534 231.316C174.708 228.967 177.822 222.751 185.174 220.14C186.217 219.765 187.195 219.422 188.076 219.178L188.304 219.08V219.112C188.418 219.08 188.516 219.064 188.614 219.031V218.966C188.793 218.9 189.706 218.558 192.885 217.399C201.541 214.234 205.796 211.493 206.383 210.988C210.898 206.452 211.078 200.562 210.882 199.355C210.882 199.339 209.708 194.721 204.801 190.561C204.801 190.561 196.52 184.704 187.521 185.193C180.169 185.601 176.762 191.491 174.154 196.957C173.029 199.306 171.872 201.672 168.888 201.704C167.144 201.672 165.644 200.627 164.894 198.914C161.993 192.29 162.938 178.341 169.54 166.48C172.344 161.438 175.833 155.173 183.511 152.041C193.211 148.076 202.747 151.927 207.883 153.999L208.225 154.129C222.424 159.84 227.2 168.111 230.069 173.055C230.412 173.658 230.738 174.213 231.064 174.719L224.168 179.059C223.81 178.488 223.435 177.835 223.027 177.15C220.402 172.598 216.783 166.382 205.193 161.716L204.85 161.569C200.514 159.823 193.26 156.886 186.608 159.595C181.946 161.504 179.648 165.126 176.681 170.444C173.86 175.518 172.409 180.69 171.839 185.063C175.067 181.098 179.876 177.444 187.081 177.036C198.248 176.399 208.551 183.007 210.1 184.329C216.376 189.664 218.609 196.01 218.952 198.017C219.636 202.128 218.381 210.531 212.105 216.828C210.426 218.525 204.573 221.821 195.705 225.068L192.07 226.389C191.744 226.503 191.434 226.601 191.14 226.666C190.912 226.764 190.13 227.025 187.896 227.825C183.642 229.342 181.799 232.997 180.821 234.971C180.658 235.313 180.512 235.591 180.397 235.803C177.887 240.322 177.659 244.662 177.903 247.517L169.785 248.235Z" fill="white"/>
<path d="M169.231 248.904L169.182 248.3C168.807 244.238 169.133 238.038 172.736 231.545C172.817 231.414 172.882 231.284 172.947 231.121C174.17 228.657 177.365 222.278 184.962 219.569C185.94 219.227 186.967 218.852 187.896 218.59L188.907 218.15V218.199C189.478 217.987 190.586 217.579 192.673 216.828C201.28 213.68 205.502 210.939 205.975 210.531C210.279 206.207 210.458 200.611 210.279 199.453C210.279 199.453 209.154 195.048 204.41 191.034C204.378 191.018 196.21 185.324 187.554 185.813C180.544 186.205 177.235 191.915 174.708 197.234C173.567 199.6 172.279 202.292 168.888 202.324C166.883 202.292 165.171 201.101 164.324 199.175C161.357 192.421 162.302 178.227 169.002 166.203C171.855 161.08 175.393 154.717 183.283 151.503C193.211 147.44 202.91 151.356 208.111 153.46L208.453 153.591C222.831 159.366 227.689 167.752 230.591 172.745C230.95 173.381 231.276 173.92 231.586 174.425L231.928 174.947L223.989 179.94L223.663 179.418C223.402 179.01 223.141 178.569 222.88 178.096L222.522 177.493C219.946 173.022 216.425 166.92 204.981 162.319L204.622 162.173C200.351 160.46 193.243 157.604 186.853 160.199C182.37 162.042 180.137 165.583 177.235 170.787C174.675 175.388 173.42 179.777 172.801 183.121C176.729 179.01 181.522 176.775 187.081 176.465C198.493 175.828 208.942 182.55 210.523 183.904C216.914 189.337 219.229 195.896 219.587 197.952C220.288 202.194 219.017 210.841 212.577 217.302C210.866 219.031 204.932 222.392 195.949 225.688L192.314 227.009C191.956 227.14 191.629 227.238 191.303 227.303C191.287 227.319 190.994 227.433 190.374 227.645L188.125 228.445C184.065 229.897 182.321 233.405 181.392 235.281C181.229 235.624 181.082 235.917 180.952 236.129C178.523 240.502 178.294 244.727 178.523 247.501L178.572 248.105L169.247 248.92L169.231 248.904ZM188.336 219.733H188.32C187.342 220.01 186.348 220.369 185.386 220.711C178.246 223.24 175.23 229.31 174.089 231.594C173.974 231.838 173.893 232.034 173.795 232.165C170.535 238.038 170.078 243.683 170.355 247.566L177.267 246.963C177.104 244.026 177.479 239.833 179.876 235.509C179.99 235.314 180.12 235.036 180.283 234.71C181.229 232.801 183.185 228.869 187.701 227.254L189.95 226.454C190.505 226.259 190.782 226.161 190.896 226.112C191.271 226.014 191.564 225.916 191.874 225.818L195.509 224.497C204.296 221.283 210.051 218.036 211.681 216.404C217.794 210.27 219.017 202.112 218.365 198.131C218.039 196.19 215.838 190.006 209.725 184.802C208.192 183.497 198.134 177.019 187.13 177.656C181.245 177.982 176.273 180.609 172.328 185.454L170.975 187.119L171.252 184.981C171.725 181.408 172.947 175.926 176.159 170.151C179.191 164.718 181.539 161.014 186.397 159.04C193.26 156.25 200.644 159.22 205.062 160.998L205.454 161.161C217.272 165.925 220.924 172.239 223.581 176.856L223.94 177.46C224.087 177.721 224.25 177.982 224.396 178.227L230.249 174.54C230.021 174.164 229.792 173.789 229.564 173.365C226.728 168.47 222 160.329 208.029 154.7L207.703 154.57C202.65 152.53 193.243 148.729 183.788 152.612C176.306 155.663 172.866 161.83 170.127 166.79C163.606 178.488 162.661 192.193 165.514 198.686C166.166 200.171 167.454 201.084 168.953 201.117C171.562 201.084 172.572 198.963 173.665 196.712C176.355 191.083 179.859 185.03 187.554 184.606C196.65 184.117 204.867 189.843 205.225 190.088C210.116 194.232 211.567 198.996 211.567 199.388C211.762 200.562 211.583 206.729 206.888 211.444C206.252 211.999 201.916 214.805 193.162 218.003C190.928 218.819 189.82 219.227 189.298 219.423L188.874 219.651C188.809 219.667 188.728 219.7 188.663 219.716L188.418 219.782L188.336 219.733Z" fill="#C06228"/>
<path d="M288.316 182.925L292.751 189.762C290.533 191.197 271.134 204.462 270.172 228.135C269.129 253.733 290.762 268.874 291.675 269.51L287.061 276.232C284.371 274.388 260.815 257.355 262.021 227.792C263.13 200.611 284.11 185.634 288.316 182.909V182.925Z" fill="white"/>
<path d="M287.224 277.08L286.719 276.738C283.996 274.878 260.196 257.682 261.418 227.776C262.543 200.252 283.752 185.144 287.99 182.403L288.936 181.8V182.762L293.598 189.957L293.093 190.284C290.908 191.703 271.737 204.755 270.792 228.168C269.781 252.787 289.751 267.422 292.033 269.021L292.539 269.363L287.24 277.097L287.224 277.08ZM288.137 183.758C283.018 187.2 263.7 201.867 262.641 227.809C261.5 255.691 282.643 272.3 286.914 275.367L290.843 269.657C286.963 266.818 268.591 252.086 269.569 228.102C270.498 205.375 288.121 192.176 291.919 189.582L288.137 183.758Z" fill="#C06228"/>
<path d="M304.977 194.771L308.678 202.047C308.514 202.129 291.756 210.906 291.12 228.673C290.485 246.343 306.444 256.148 306.591 256.246L302.401 263.245C301.57 262.756 282.171 250.829 282.969 228.38C283.768 205.832 304.113 195.211 304.977 194.771Z" fill="white"/>
<path d="M302.613 264.077L302.092 263.767C301.88 263.653 281.535 251.4 282.366 228.347C283.181 205.441 303.836 194.656 304.716 194.216L305.254 193.938L309.509 202.308L308.971 202.586C308.808 202.667 292.376 211.265 291.756 228.69C291.153 245.282 305.303 254.696 306.933 255.708L307.439 256.034L307.145 256.556L302.646 264.077H302.613ZM304.716 195.603C301.374 197.463 284.306 207.953 283.589 228.396C282.872 248.676 299.092 260.341 302.206 262.381L305.776 256.426C302.711 254.37 289.947 244.777 290.517 228.641C291.104 212.44 304.944 203.499 307.879 201.786L304.732 195.586L304.716 195.603Z" fill="#C06228"/>
<path d="M317.709 210.123L321.523 217.334C320.757 217.742 314.073 221.478 313.193 228.477C312.411 234.71 316.372 240.942 323.04 243.96L319.681 251.384C309.721 246.881 303.852 237.255 305.107 227.449C306.477 216.583 315.85 211.101 317.709 210.123Z" fill="white"/>
<path d="M319.991 252.199L319.437 251.955C309.215 247.338 303.216 237.467 304.504 227.384C305.922 216.192 315.508 210.596 317.432 209.601L317.97 209.323L322.355 217.611L321.817 217.905C321.083 218.297 314.644 221.902 313.813 228.591C313.063 234.563 316.877 240.534 323.3 243.438L323.855 243.683L319.991 252.216V252.199ZM317.464 210.955C314.84 212.456 306.949 217.726 305.727 227.515C304.52 236.863 309.998 246.065 319.388 250.552L322.241 244.238C315.655 241.024 311.791 234.71 312.59 228.379C313.405 221.967 318.866 218.182 320.708 217.073L317.464 210.938V210.955Z" fill="#C06228"/>
</svg>
